<?xml version="1.0" standalone="no"?>
<!DOCTYPE svg PUBLIC "-//W3C//DTD SVG 20010904//EN"
 "http://www.w3.org/TR/2001/REC-SVG-20010904/DTD/svg10.dtd">
<svg version="1.0" xmlns="http://www.w3.org/2000/svg"
 width="480.000000pt" height="122.000000pt" viewBox="0 0 480.000000 122.000000"
 preserveAspectRatio="xMidYMid meet">

<g transform="translate(0.000000,122.000000) scale(0.100000,-0.100000)"
fill="#000000" stroke="none">
<path d="M839 802 c-208 -436 -218 -459 -195 -470 20 -9 27 4 129 222 101 216
106 232 90 244 -16 13 -16 13 7 8 24 -7 25 -7 5 10 -20 16 -20 16 1 10 29 -9
40 20 14 34 -16 9 -22 2 -51 -58z"/>
<path d="M1140 611 c0 -154 2 -181 15 -181 12 0 15 16 15 80 l0 80 80 0 c88 0
100 -8 100 -68 0 -58 12 -92 31 -92 15 0 18 6 14 28 -2 15 -7 48 -10 74 -3 26
-13 54 -21 62 -12 13 -11 18 11 40 33 33 34 85 1 123 -23 27 -28 28 -130 31
l-106 4 0 -181z m191 138 c27 -14 38 -48 27 -81 -12 -32 -55 -48 -135 -48
l-53 0 0 70 0 70 71 0 c39 0 79 -5 90 -11z"/>
<path d="M2570 611 c0 -153 2 -181 15 -181 12 0 15 27 17 158 l3 157 59 -158
c45 -121 63 -157 75 -155 10 2 35 56 73 158 l57 155 1 -157 c0 -134 2 -158 15
-158 13 0 15 27 15 180 l0 180 -24 0 c-21 0 -28 -14 -71 -132 -26 -73 -52
-144 -57 -158 -9 -22 -16 -7 -67 130 -53 143 -60 155 -84 158 l-27 3 0 -180z"/>
<path d="M2097 690 c-16 -5 -35 -14 -43 -21 -11 -9 -14 -8 -14 5 0 9 -7 16
-15 16 -13 0 -15 -21 -15 -130 0 -109 2 -130 15 -130 12 0 15 16 15 85 0 115
21 155 80 155 41 0 50 -26 50 -136 0 -86 3 -104 15 -104 12 0 15 16 15 85 0
115 21 155 80 155 41 0 50 -26 50 -136 0 -86 3 -104 15 -104 12 0 15 18 15
103 0 131 -10 151 -71 155 -33 2 -52 -2 -69 -16 -23 -19 -25 -19 -39 -2 -21
24 -49 30 -84 20z"/>
<path d="M3043 689 c-32 -9 -63 -42 -63 -66 0 -21 25 -15 35 9 21 48 106 49
127 2 16 -34 -3 -49 -73 -57 -74 -9 -99 -28 -99 -77 0 -29 6 -43 22 -54 32
-23 100 -20 131 4 25 20 25 20 30 0 6 -24 57 -29 57 -5 0 8 -6 14 -12 12 -10
-1 -14 25 -18 95 -4 80 -9 101 -25 117 -25 24 -70 32 -112 20z m107 -153 c0
-58 -79 -102 -127 -71 -43 29 -26 74 33 85 76 15 94 12 94 -14z"/>
<path d="M3593 689 c-47 -14 -87 -79 -48 -79 8 0 15 5 15 10 0 20 41 50 68 50
60 0 97 -60 50 -80 -13 -5 -45 -12 -71 -15 -27 -4 -57 -15 -68 -26 -25 -25
-24 -74 1 -99 27 -27 98 -27 133 0 25 20 25 20 30 0 6 -24 57 -29 57 -5 0 8
-6 14 -12 12 -10 -1 -14 25 -18 95 -4 80 -9 101 -25 117 -25 24 -70 32 -112
20z m107 -153 c0 -58 -79 -102 -127 -71 -43 29 -19 79 42 88 74 10 85 8 85
-17z"/>
<path d="M1489 662 c-27 -24 -33 -37 -37 -84 -7 -92 39 -148 124 -148 87 0
136 118 88 212 -19 36 -43 48 -98 48 -36 0 -52 -6 -77 -28z m136 -17 c20 -19
25 -34 25 -77 0 -88 -48 -132 -114 -104 -41 17 -61 61 -53 119 11 79 91 114
142 62z"/>
<path d="M1765 666 c-56 -57 -54 -160 6 -210 56 -47 147 -26 175 39 28 67 11
145 -38 179 -36 25 -114 21 -143 -8z m131 -19 c55 -47 34 -184 -28 -189 -76
-5 -108 27 -108 108 0 45 4 59 25 79 31 32 75 32 111 2z"/>
<path d="M3252 563 c2 -83 7 -128 14 -130 8 -3 13 27 16 93 4 91 6 98 32 120
33 29 69 31 96 4 17 -17 20 -33 20 -120 0 -82 3 -100 15 -100 12 0 15 18 15
105 0 99 -2 107 -25 130 -28 29 -89 34 -121 10 -25 -19 -34 -19 -34 0 0 8 -7
15 -15 15 -13 0 -15 -18 -13 -127z"/>
<path d="M3844 675 c-33 -22 -47 -68 -42 -132 4 -48 10 -61 37 -85 36 -32 84
-37 131 -13 29 15 30 15 30 -8 0 -14 -9 -36 -21 -51 -27 -34 -98 -37 -129 -6
-24 24 -40 26 -40 5 0 -23 60 -55 102 -55 101 0 118 31 118 220 0 118 -2 140
-15 140 -8 0 -15 -9 -15 -20 l0 -21 -22 21 c-26 24 -103 28 -134 5z m111 -11
c46 -18 61 -134 23 -178 -22 -25 -40 -31 -86 -28 -31 3 -62 57 -62 110 0 71
63 119 125 96z"/>
<path d="M4131 655 c-27 -31 -31 -43 -31 -91 0 -96 34 -134 121 -134 31 0 47
7 70 29 16 16 29 34 29 40 0 19 -24 12 -45 -14 -11 -14 -34 -28 -52 -31 -27
-5 -37 -1 -63 24 -16 17 -30 40 -30 51 0 19 7 20 98 23 l97 3 -4 30 c-4 40
-27 82 -50 95 -11 5 -40 10 -64 10 -39 0 -49 -5 -76 -35z m134 -10 c14 -13 25
-33 25 -45 0 -18 -6 -20 -80 -20 -86 0 -89 3 -65 50 23 45 83 53 120 15z"/>
<path d="M4390 559 c0 -100 3 -130 13 -127 8 3 14 36 17 100 5 102 17 128 56
128 15 0 24 6 24 15 0 20 -39 19 -62 -2 -17 -15 -18 -15 -18 0 0 10 -7 17 -15
17 -13 0 -15 -21 -15 -131z"/>
<path d="M330 370 c-90 -11 -150 -50 -98 -63 31 -8 197 -11 204 -4 5 5 -75 15
-166 20 -43 2 -44 3 -22 15 13 7 54 16 92 19 38 3 67 10 64 14 -3 5 -8 8 -12
8 -4 -1 -32 -5 -62 -9z"/>
<path d="M617 310 c-12 -46 -8 -57 13 -31 21 24 27 47 11 37 -5 -4 -11 -1 -13
6 -3 7 -7 1 -11 -12z"/>
<path d="M404 279 c-5 -9 74 -22 107 -17 14 2 -2 7 -39 14 -35 5 -65 7 -68 3z"/>
</g>
</svg>
